<?xml version="1.0" encoding="utf-8"?>
<!-- Generator: Adobe Illustrator 16.0.0, SVG Export Plug-In . SVG Version: 6.00 Build 0)  -->
<!DOCTYPE svg PUBLIC "-//W3C//DTD SVG 1.1//EN" "http://www.w3.org/Graphics/SVG/1.1/DTD/svg11.dtd">
<svg version="1.1" id="Capa_1" xmlns="http://www.w3.org/2000/svg" xmlns:xlink="http://www.w3.org/1999/xlink" x="0px" y="0px"
	 width="118px" height="162px" viewBox="453 303 118 162" enable-background="new 453 303 118 162" xml:space="preserve">
<g>
	<path fill="#F7931E" d="M571,455.097c0,5.446-4.457,9.903-9.903,9.903h-98.194c-5.446,0-9.903-4.457-9.903-9.903V312.903
		c0-5.447,4.457-9.903,9.903-9.903h98.194c5.446,0,9.903,4.457,9.903,9.903V455.097z"/>
</g>
<g enable-background="new    ">
	<path fill="#FFFFFF" d="M515.14,394.201c0,2.506-1.482,4.064-3.835,4.064c-2.355,0-3.837-1.559-3.837-4.064v-9.769
		c0-3.891,0.087-4.583,6.104-5.792c6.888-1.384,8.021-6.139,8.021-9.338c0-5.879-4.272-9.51-10.112-9.51
		c-4.622,0-8.197,1.643-10.115,7.089c-0.784,2.248-1.831,2.853-3.4,2.853c-2.005,0-3.837-1.556-3.749-3.977
		c0.349-7.608,8.894-13.055,17.002-13.055c10.55,0,18.571,6.744,18.571,15.907c0,9.338-5.929,15.13-14.648,16.946V394.201z
		 M511.305,406.479c2.441,0,4.446,1.988,4.446,4.41c0,2.42-2.005,4.408-4.446,4.408s-4.447-1.988-4.447-4.408
		C506.857,408.467,508.863,406.479,511.305,406.479z"/>
</g>
<text transform="matrix(1 0 0 1 256.8867 -83.8359)" fill="#8F9596" font-family="'ArialMT'" font-size="56.8889">Fuente: VAG Rounded Std</text>
</svg>
