<?xml version="1.0" encoding="utf-8"?>
<!-- Generator: Adobe Illustrator 21.0.0, SVG Export Plug-In . SVG Version: 6.00 Build 0)  -->
<svg version="1.1" id="Capa_1" xmlns="http://www.w3.org/2000/svg" xmlns:xlink="http://www.w3.org/1999/xlink" x="0px" y="0px"
	 viewBox="0 0 55 55" style="enable-background:new 0 0 55 55;" xml:space="preserve">
<style type="text/css">
	.st0{fill:#F2B741;}
	.st1{fill:#FFFFFF;}
</style>
<g>
	<g>
		<path class="st0" d="M55,45c0,5.5-4.5,10-10,10H10C4.5,55,0,50.5,0,45V10C0,4.5,4.5,0,10,0h35c5.5,0,10,4.5,10,10V45z"/>
	</g>
	<path class="st1" d="M12.5,28.9h5.1c0.1,2.3,1.1,4.6,2.9,6.4c3.8,3.8,10.1,3.8,13.9,0c3.8-3.8,3.8-10.1,0-13.9
		c-1.7-1.7-3.9-2.7-6.2-2.8v3.8c0,0.7-0.4,0.9-1,0.5l-8.6-6.2c-0.5-0.4-0.5-1,0-1.4l8.6-6.2c0.5-0.4,1-0.2,1,0.5v3.8
		c3.6,0.2,7.1,1.6,9.8,4.3c5.8,5.8,5.8,15.3,0,21.1c-5.8,5.8-15.3,5.8-21.1,0C14.1,36.2,12.6,32.6,12.5,28.9z"/>
</g>
</svg>
